<svg width="156" height="34" viewBox="0 0 156 34" fill="none" xmlns="http://www.w3.org/2000/svg">
<path d="M0 11.106C0 10.4026 0.373312 9.75201 0.980614 9.39708L13.0126 2.36516C14.3321 1.59396 15.9907 2.54569 15.9907 4.07407V14.6858L8.08024 9.97019V33.3753H1.97937C0.886193 33.3753 0 32.4891 0 31.3959V11.106Z" fill="#000DFF"/>
<path d="M15.991 14.7005L23.0559 19.0354C23.6425 19.3953 24.0001 20.0342 24.0001 20.7225V31.396C24.0001 32.4892 23.1139 33.3754 22.0207 33.3754H17.9703C16.8772 33.3754 15.991 32.4892 15.991 31.396V14.7005Z" fill="#F97432"/>
<path d="M43.0616 23.6246H40.3216L45.4516 9.32463H49.2416L54.3016 23.6246H51.5016L50.3766 20.2596H44.2066L43.0616 23.6246ZM44.9666 18.0196H49.6266L47.3116 11.1096L44.9666 18.0196ZM61.3441 23.5396C60.4491 23.7946 59.6591 23.9196 58.9691 23.9196C56.6541 23.9196 55.4241 22.5246 55.4241 19.8246V14.6396H53.9841V12.5996H55.4241V10.0596H57.9341V12.5996H61.3441V14.6396H57.9341V19.8296C57.9341 21.1946 58.4191 21.8146 59.5191 21.8146C59.9541 21.8146 60.5441 21.7196 61.3441 21.5096V23.5396ZM65.1167 8.82463V23.6246H62.6067V8.82463H65.1167ZM66.577 16.5396C66.577 13.9346 68.557 12.2996 71.737 12.2996C75.052 12.2996 77.032 14.0796 77.032 17.0846V23.6246H74.522V20.7346C74.007 22.7146 72.377 23.9246 70.137 23.9246C67.802 23.9246 66.252 22.6096 66.252 20.6346C66.252 18.5846 67.927 17.3396 70.692 17.3396H74.522V17.0846C74.522 15.4196 73.447 14.3946 71.687 14.3946C69.897 14.3946 69.082 15.2346 69.082 16.5396H66.577ZM74.522 19.0996H70.837C69.472 19.0996 68.752 19.5696 68.752 20.4646C68.752 21.4046 69.552 21.9296 70.997 21.9296C73.047 21.9296 74.522 20.8746 74.522 19.4146V19.0996ZM83.057 12.2996C86.182 12.2996 87.972 13.7346 87.972 16.0346H85.507C85.507 14.9596 84.657 14.2696 83.087 14.2696C81.692 14.2696 80.732 14.8146 80.732 15.6296C80.732 16.5846 81.977 16.7846 83.202 16.9846L83.937 17.1046C85.747 17.3996 88.342 17.8246 88.342 20.4796C88.342 22.6746 86.552 23.9246 83.277 23.9246C79.847 23.9246 78.072 22.5546 78.072 20.0996H80.537C80.537 21.2896 81.412 21.9446 83.262 21.9446C84.907 21.9446 85.882 21.4296 85.882 20.5246C85.882 19.4546 84.607 19.2246 83.187 18.9796L82.447 18.8546C80.802 18.5646 78.272 18.1396 78.272 15.6796C78.272 13.6046 80.077 12.2996 83.057 12.2996ZM94.0825 9.32463H103.853V11.6446H96.7125V15.3646H103.263V17.6146H96.7125V21.3046H104.043V23.6246H94.0825V9.32463ZM109.698 12.2996C112.823 12.2996 114.613 13.7346 114.613 16.0346H112.148C112.148 14.9596 111.298 14.2696 109.728 14.2696C108.333 14.2696 107.373 14.8146 107.373 15.6296C107.373 16.5846 108.618 16.7846 109.843 16.9846L110.578 17.1046C112.388 17.3996 114.983 17.8246 114.983 20.4796C114.983 22.6746 113.193 23.9246 109.918 23.9246C106.488 23.9246 104.713 22.5546 104.713 20.0996H107.178C107.178 21.2896 108.053 21.9446 109.903 21.9446C111.548 21.9446 112.523 21.4296 112.523 20.5246C112.523 19.4546 111.248 19.2246 109.828 18.9796L109.088 18.8546C107.443 18.5646 104.913 18.1396 104.913 15.6796C104.913 13.6046 106.718 12.2996 109.698 12.2996ZM123.063 23.5396C122.168 23.7946 121.378 23.9196 120.688 23.9196C118.373 23.9196 117.143 22.5246 117.143 19.8246V14.6396H115.703V12.5996H117.143V10.0596H119.653V12.5996H123.063V14.6396H119.653V19.8296C119.653 21.1946 120.138 21.8146 121.238 21.8146C121.673 21.8146 122.263 21.7196 123.063 21.5096V23.5396ZM124.233 16.5396C124.233 13.9346 126.213 12.2996 129.393 12.2996C132.708 12.2996 134.688 14.0796 134.688 17.0846V23.6246H132.178V20.7346C131.663 22.7146 130.033 23.9246 127.793 23.9246C125.458 23.9246 123.908 22.6096 123.908 20.6346C123.908 18.5846 125.583 17.3396 128.348 17.3396H132.178V17.0846C132.178 15.4196 131.103 14.3946 129.343 14.3946C127.553 14.3946 126.738 15.2346 126.738 16.5396H124.233ZM132.178 19.0996H128.493C127.128 19.0996 126.408 19.5696 126.408 20.4646C126.408 21.4046 127.208 21.9296 128.653 21.9296C130.703 21.9296 132.178 20.8746 132.178 19.4146V19.0996ZM142.926 23.5396C142.031 23.7946 141.241 23.9196 140.551 23.9196C138.236 23.9196 137.006 22.5246 137.006 19.8246V14.6396H135.566V12.5996H137.006V10.0596H139.516V12.5996H142.926V14.6396H139.516V19.8296C139.516 21.1946 140.001 21.8146 141.101 21.8146C141.536 21.8146 142.126 21.7196 142.926 21.5096V23.5396ZM151.769 19.9296H154.189C153.604 22.4196 151.644 23.9246 149.014 23.9246C145.729 23.9246 143.519 21.5796 143.519 18.0996C143.519 14.6296 145.704 12.2996 148.954 12.2996C152.159 12.2996 154.239 14.5696 154.239 18.0746C154.239 18.3346 154.229 18.5896 154.199 18.8746H145.999C146.209 20.7096 147.344 21.8096 149.079 21.8096C150.394 21.8096 151.279 21.1746 151.769 19.9296ZM146.034 17.0746H151.754C151.489 15.3296 150.524 14.3946 148.964 14.3946C147.364 14.3946 146.309 15.3846 146.034 17.0746Z" fill="white"/>
</svg>
