<svg width="127" height="40" viewBox="0 0 127 40" fill="none" xmlns="http://www.w3.org/2000/svg">
<path d="M66.9318 10.05C66.9318 11.4915 65.7812 12.6527 64.3529 12.6527C62.9246 12.6527 61.774 11.4915 61.774 10.05C61.774 8.60861 62.8849 7.44745 64.3529 7.44745C65.8209 7.48749 66.9318 8.64865 66.9318 10.05ZM56.2989 15.2953C56.2989 15.5355 56.2989 15.9359 56.2989 15.9359C56.2989 15.9359 55.0689 14.3343 52.4504 14.3343C48.1258 14.3343 44.7534 17.6577 44.7534 22.2623C44.7534 26.8268 48.0861 30.1902 52.4504 30.1902C55.1086 30.1902 56.2989 28.5485 56.2989 28.5485V29.2292C56.2989 29.5495 56.5369 29.7898 56.8543 29.7898H60.068V14.7347C60.068 14.7347 57.132 14.7347 56.8543 14.7347C56.5369 14.7347 56.2989 15.015 56.2989 15.2953ZM56.2989 24.9449C55.7037 25.8258 54.5135 26.5866 53.0852 26.5866C50.546 26.5866 48.6019 24.985 48.6019 22.2623C48.6019 19.5395 50.546 17.9379 53.0852 17.9379C54.4738 17.9379 55.7434 18.7387 56.2989 19.5796V24.9449ZM62.4485 14.7347H66.2573V29.7898H62.4485V14.7347ZM119.343 14.3343C116.724 14.3343 115.494 15.9359 115.494 15.9359V7.48749H111.685V29.7898C111.685 29.7898 114.621 29.7898 114.899 29.7898C115.216 29.7898 115.454 29.5095 115.454 29.2292V28.5485C115.454 28.5485 116.684 30.1902 119.303 30.1902C123.628 30.1902 127 26.8268 127 22.2623C127 17.6977 123.628 14.3343 119.343 14.3343ZM118.708 26.5465C117.24 26.5465 116.089 25.7858 115.494 24.9049V19.5395C116.089 18.7387 117.359 17.8979 118.708 17.8979C121.247 17.8979 123.191 19.4995 123.191 22.2222C123.191 24.9449 121.247 26.5465 118.708 26.5465ZM109.702 20.8609V29.8298H105.893V21.3013C105.893 18.8188 105.099 17.8178 102.957 17.8178C101.806 17.8178 100.616 18.4184 99.8621 19.2993V29.7898H96.0533V14.7347H99.0686C99.386 14.7347 99.6241 15.015 99.6241 15.2953V15.9359C100.735 14.7748 102.203 14.3343 103.671 14.3343C105.337 14.3343 106.726 14.8148 107.837 15.7758C109.186 16.8969 109.702 18.3383 109.702 20.8609ZM86.809 14.3343C84.1905 14.3343 82.9605 15.9359 82.9605 15.9359V7.48749H79.1517V29.7898C79.1517 29.7898 82.0877 29.7898 82.3654 29.7898C82.6828 29.7898 82.9209 29.5095 82.9209 29.2292V28.5485C82.9209 28.5485 84.1508 30.1902 86.7693 30.1902C91.0939 30.1902 94.4663 26.8268 94.4663 22.2623C94.506 17.6977 91.1336 14.3343 86.809 14.3343ZM86.1742 26.5465C84.7062 26.5465 83.5557 25.7858 82.9605 24.9049V19.5395C83.5557 18.7387 84.8253 17.8979 86.1742 17.8979C88.7134 17.8979 90.6575 19.4995 90.6575 22.2222C90.6575 24.9449 88.7134 26.5465 86.1742 26.5465ZM75.8587 14.3343C77.0093 14.3343 77.6044 14.5345 77.6044 14.5345V18.0981C77.6044 18.0981 74.4304 17.017 72.4466 19.2993V29.8298H68.6378V14.7347C68.6378 14.7347 71.5738 14.7347 71.8515 14.7347C72.1689 14.7347 72.4069 15.015 72.4069 15.2953V15.9359C73.1211 15.0951 74.6684 14.3343 75.8587 14.3343ZM36.3026 28.4284C36.1042 27.9479 35.9059 27.4274 35.7075 26.987C35.3901 26.2663 35.0727 25.5856 34.7949 24.9449L34.7553 24.9049C32.0177 18.8989 29.0817 12.8128 25.9871 6.80681L25.8681 6.56657C25.5507 5.96597 25.2333 5.32533 24.9159 4.68468C24.5191 3.96396 24.1224 3.2032 23.4875 2.48248C22.2179 0.880881 20.3929 0 18.4488 0C16.4651 0 14.6797 0.880881 13.3704 2.4024C12.7753 3.12312 12.3388 3.88388 11.9421 4.6046C11.6247 5.24525 11.3073 5.88589 10.9899 6.48649L10.8709 6.72673C7.81588 12.7327 4.84025 18.8188 2.10267 24.8248L2.06299 24.9049C1.78527 25.5455 1.46787 26.2262 1.15047 26.9469C0.952091 27.3874 0.753715 27.8679 0.55534 28.3884C0.0395634 29.8699 -0.119137 31.2713 0.0792385 32.7127C0.515665 35.7157 2.49942 38.2382 5.237 39.3594C6.26855 39.7998 7.33978 40 8.45068 40C8.76809 40 9.16484 39.96 9.48224 39.9199C10.7915 39.7598 12.1405 39.3193 13.4497 38.5586C15.0764 37.6376 16.6238 36.3163 18.3695 34.3944C20.1152 36.3163 21.7022 37.6376 23.2892 38.5586C24.5985 39.3193 25.9474 39.7598 27.2567 39.9199C27.5741 39.96 27.9708 40 28.2882 40C29.3991 40 30.51 39.7998 31.5019 39.3594C34.2792 38.2382 36.2233 35.6757 36.6597 32.7127C36.9771 31.3113 36.8184 29.9099 36.3026 28.4284ZM18.4091 30.5105C16.2667 27.7878 14.8781 25.2252 14.402 23.0631C14.2036 22.1421 14.1639 21.3413 14.2829 20.6206C14.3623 19.98 14.6003 19.4194 14.9177 18.9389C15.6716 17.8579 16.9412 17.1772 18.4091 17.1772C19.8771 17.1772 21.1864 17.8178 21.9005 18.9389C22.2179 19.4194 22.456 19.98 22.5353 20.6206C22.6544 21.3413 22.6147 22.1822 22.4163 23.0631C21.9402 25.1852 20.5516 27.7477 18.4091 30.5105ZM34.2395 32.3924C33.9618 34.4745 32.5731 36.2763 30.6291 37.0771C29.6769 37.4775 28.6453 37.5976 27.6138 37.4775C26.6219 37.3574 25.63 37.037 24.5985 36.4364C23.1701 35.6356 21.7418 34.3944 20.0755 32.5526C22.694 29.3093 24.2811 26.3463 24.8762 23.7037C25.1539 22.4625 25.1936 21.3413 25.0746 20.3003C24.9159 19.2993 24.5588 18.3784 24.0033 17.5776C22.7734 15.7758 20.7103 14.7347 18.4091 14.7347C16.108 14.7347 14.0449 15.8158 12.8149 17.5776C12.2595 18.3784 11.9024 19.2993 11.7437 20.3003C11.585 21.3413 11.6247 22.5025 11.9421 23.7037C12.5372 26.3463 14.1639 29.3493 16.7428 32.5926C15.1161 34.4344 13.6481 35.6757 12.2198 36.4765C11.1883 37.0771 10.1964 37.3974 9.20451 37.5175C8.13328 37.6376 7.10173 37.4775 6.1892 37.1171C4.24512 36.3163 2.8565 34.5145 2.57877 32.4324C2.45974 31.4314 2.53909 30.4304 2.93585 29.3093C3.05487 28.9089 3.25325 28.5085 3.45162 28.028C3.72935 27.3874 4.04675 26.7067 4.36415 26.026L4.40382 25.9459C7.14141 19.98 10.0774 13.8939 13.1323 7.96797L13.2514 7.72773C13.5688 7.12713 13.8862 6.48649 14.2036 5.88589C14.521 5.24524 14.8781 4.64464 15.3145 4.12412C16.1477 3.16316 17.2586 2.64264 18.4885 2.64264C19.7184 2.64264 20.8293 3.16316 21.6625 4.12412C22.0989 4.64464 22.456 5.24524 22.7734 5.88589C23.0908 6.48649 23.4082 7.12713 23.7256 7.72773L23.8446 7.96797C26.8599 13.9339 29.7959 20.02 32.5335 25.986V26.026C32.8509 26.6667 33.1286 27.3874 33.446 28.028C33.6444 28.5085 33.8427 28.9089 33.9618 29.3093C34.2792 30.3503 34.3982 31.3514 34.2395 32.3924Z" fill="#BABABC"/>
</svg>
