<svg width="104" height="28" viewBox="0 0 104 28" fill="none" xmlns="http://www.w3.org/2000/svg">
<path d="M14.2461 26.1952C12.6875 26.4689 11.1016 26.5509 9.46099 26.7695L4.45696 12.1133V27.3985C2.89843 27.5625 1.47658 27.7813 0 28V0H4.15636L9.84374 15.887V0H14.2461V26.1952ZM22.8594 10.2539C24.5548 10.2539 27.1524 10.1719 28.711 10.1719V14.5468C26.7695 14.5468 24.5001 14.5468 22.8594 14.6288V21.1367C25.4298 20.9727 28.0001 20.7538 30.5976 20.6717V24.8824L18.4843 25.8397V0H30.5976V4.37501H22.8594V10.2539ZM46.8671 4.37511H42.3281V24.5001C40.8515 24.5001 39.375 24.5001 37.9533 24.5546V4.37511H33.4143V0H46.8673L46.8671 4.37511ZM53.9765 9.95321H59.9648V14.3281H53.9765V24.254H49.6832V0H61.9062V4.37501H53.9765V9.95321ZM69.0155 20.4258C71.5039 20.4803 74.0194 20.672 76.4531 20.8085V25.1289C72.543 24.8826 68.6328 24.6369 64.6406 24.5546V0H69.0155V20.4258ZM80.1444 25.4297C81.539 25.5118 83.0155 25.5939 84.4374 25.7577V0H80.1444V25.4297ZM103.606 0L98.0546 13.3164L103.606 28C101.965 27.7813 100.324 27.4805 98.6834 27.207L95.5391 19.1134L92.3401 26.5509C90.7539 26.2773 89.2227 26.1952 87.637 25.9765L93.2698 13.1522L88.1837 0H92.8866L95.7577 7.35549L98.8203 0H103.606V0Z" fill="#BABABC"/>
</svg>
