<svg width="129" height="28" viewBox="0 0 129 28" fill="none" xmlns="http://www.w3.org/2000/svg">
<path fill-rule="evenodd" clip-rule="evenodd" d="M13.5973 12.183C13.5973 5.51427 12.478 2.74987 9.40068 2.74987C6.6866 2.74987 5.31569 4.6878 5.31569 11.4137C5.31569 18.0537 6.37887 20.7899 9.51251 20.7899C12.2823 20.7899 13.5973 18.8802 13.5973 12.183ZM0 12.0121C0 4.51672 5.06388 1.55299 9.56863 1.55299C14.3807 1.55299 18.913 4.48847 18.913 11.5561C18.913 19.1082 13.8491 21.9867 9.34434 21.9867C4.5325 21.9867 0 18.8519 0 12.0121Z" fill="#BABABC"/>
<path fill-rule="evenodd" clip-rule="evenodd" d="M41.6995 12.4965L46.4836 12.24C46.4836 8.79175 46.0363 7.53769 44.3574 7.53769C42.9304 7.53769 41.8113 8.90565 41.6995 12.4965ZM37.279 14.1779C37.279 9.21911 40.8879 6.45471 44.5811 6.45471C48.397 6.45471 50.7918 8.37512 50.9281 13.3994C50.9309 13.4971 50.8528 13.5795 50.7565 13.5795H41.8752C41.7788 13.5795 41.701 13.6619 41.7033 13.7598C41.8285 18.2866 43.5553 19.5359 46.3997 19.5359C47.788 19.5359 48.9073 19.2073 49.8441 18.7841C49.9131 18.7528 49.9931 18.7712 50.0423 18.8299L50.4144 19.2756C50.4705 19.3429 50.4698 19.4423 50.4105 19.5063C49.3899 20.6026 47.3121 21.9868 44.5811 21.9868C39.7129 21.9868 37.279 19.0229 37.279 14.1779Z" fill="#BABABC"/>
<path fill-rule="evenodd" clip-rule="evenodd" d="M94.8914 14.406C94.8914 8.64917 93.8005 7.56619 91.8978 7.56619C90.135 7.56619 89.1 8.8772 89.1 13.7791C89.1 19.6215 90.0232 20.8752 92.0655 20.8752C93.7446 20.8752 94.8914 19.8778 94.8914 14.406ZM84.3998 14.2636C84.3998 8.79155 88.2046 6.45473 91.9818 6.45473C96.0387 6.45473 99.5919 8.93415 99.5919 14.121C99.5919 19.5928 95.8428 21.9871 91.9818 21.9871C87.925 21.9871 84.3998 19.4787 84.3998 14.2636Z" fill="#BABABC"/>
<path fill-rule="evenodd" clip-rule="evenodd" d="M111.579 14.406C111.579 8.64917 110.488 7.56619 108.586 7.56619C106.823 7.56619 105.788 8.8772 105.788 13.7791C105.788 19.6215 106.711 20.8752 108.754 20.8752C110.432 20.8752 111.579 19.8778 111.579 14.406ZM101.087 14.2636C101.087 8.79155 104.892 6.45473 108.669 6.45473C112.726 6.45473 116.279 8.93415 116.279 14.121C116.279 19.5928 112.531 21.9871 108.669 21.9871C104.613 21.9871 101.087 19.4787 101.087 14.2636Z" fill="#BABABC"/>
<path fill-rule="evenodd" clip-rule="evenodd" d="M62.4295 6.45474C60.3872 6.45474 58.5406 7.39533 57.0579 8.47809H56.9459L57.0009 6.68123C57.0052 6.54345 56.8887 6.43415 56.7545 6.44948L52.8394 6.9016C52.7243 6.91474 52.6372 7.01375 52.6372 7.13182V21.4188C52.6372 21.5437 52.7366 21.6447 52.8589 21.6447H56.8639C56.9863 21.6447 57.0856 21.5437 57.0856 21.4188V9.47564C57.7011 9.33304 58.7084 9.10523 59.6879 9.10523C61.0027 9.10523 61.6184 9.64672 61.6184 11.3851V21.4188C61.6184 21.5437 61.7177 21.6447 61.8401 21.6447H65.873C65.9954 21.6447 66.0949 21.5437 66.0949 21.4188V10.2739C66.0949 7.70879 64.8079 6.45474 62.4295 6.45474Z" fill="#BABABC"/>
<path fill-rule="evenodd" clip-rule="evenodd" d="M78.0977 19.1083C77.65 19.2794 76.8945 19.7354 75.7475 19.7354C73.6211 19.7354 72.502 18.2818 72.502 13.8075C72.502 9.10499 73.9009 7.59465 75.9152 7.59465C76.9507 7.59465 77.622 8.19309 78.0977 8.79153V19.1083ZM82.5461 3.66184C82.5461 2.18874 82.5954 0.835234 82.6214 0.279726C82.6289 0.117191 82.4935 -0.0133618 82.3345 0.00109544L78.305 0.467232C78.1876 0.477965 78.0977 0.57807 78.0977 0.698328V4.68787C78.0977 5.71367 78.1536 6.76817 78.1536 6.76817C77.5661 6.5971 76.7827 6.45471 76.0275 6.45471C71.6627 6.45471 67.9134 8.82022 67.9134 14.7481C67.9134 19.9348 70.6273 21.9868 73.3973 21.9868C75.3557 21.9868 76.9225 21.1888 78.1257 20.1345H78.2375L78.1807 21.7075C78.1743 21.8751 78.3179 22.0076 78.4807 21.9842L82.3193 21.5476C82.4494 21.5292 82.5461 21.4158 82.5461 21.2819V3.66184Z" fill="#BABABC"/>
<path fill-rule="evenodd" clip-rule="evenodd" d="M126.677 6.45473C125.054 6.45473 123.46 7.70879 122.593 8.64916H122.481L122.535 6.73402C122.54 6.57105 122.401 6.44137 122.242 6.45955L118.374 6.90181C118.259 6.91495 118.172 7.01396 118.172 7.13225V21.3766C118.172 21.5246 118.29 21.6447 118.435 21.6447H122.357C122.502 21.6447 122.621 21.5246 122.621 21.3766V9.81779C123.012 9.44716 123.656 9.07653 124.159 9.07653C124.411 9.07653 124.579 9.1337 124.747 9.44716C125.278 10.3306 125.699 10.8412 126.901 10.8412C127.992 10.8412 128.968 9.96017 128.968 8.59221C128.968 7.19556 128.02 6.45473 126.677 6.45473Z" fill="#BABABC"/>
<path fill-rule="evenodd" clip-rule="evenodd" d="M27.6604 20.8468C26.709 20.8468 25.9538 20.4192 25.45 19.8207V9.44703C25.8977 9.27618 26.5972 8.93402 27.7163 8.93402C29.8427 8.93402 31.0459 10.3589 31.0459 14.4343C31.0459 19.6499 29.8706 20.8468 27.6604 20.8468ZM30.1504 6.45482C28.1918 6.45482 26.6254 7.3952 25.45 8.42123H25.3102L25.3642 6.71593C25.3691 6.56063 25.2375 6.43686 25.0861 6.45439L21.2037 6.90147C21.0884 6.91483 21.0015 7.01406 21.0015 7.13212V27.7681C21.0015 27.9063 21.1196 28.0141 21.2547 27.9985L25.248 27.5389C25.3631 27.5258 25.45 27.4266 25.45 27.3085V23.4403C25.45 22.443 25.4222 21.7019 25.4222 21.7019C26.0377 21.8728 26.9611 21.9867 27.5486 21.9867C32.2209 21.9867 35.6341 19.3934 35.6341 13.4655C35.6341 8.25015 32.8084 6.45482 30.1504 6.45482Z" fill="#BABABC"/>
</svg>
