<svg width="125" height="24" viewBox="0 0 125 24" fill="none" xmlns="http://www.w3.org/2000/svg">
<path d="M9.68853 0.509949C4.65853 0.509949 0.582031 4.58645 0.582031 9.61645C0.582031 12.1309 1.60103 14.4074 3.24853 16.0569L10.648 23.4584L13.412 20.6939L6.01403 13.2909C5.07403 12.3504 4.49153 11.0514 4.49153 9.61595C4.49153 6.74495 6.81853 4.41845 9.68903 4.41845C12.5595 4.41845 14.8855 6.74445 14.8855 9.61595C14.8855 12.4274 12.654 14.7154 9.86353 14.8084L13.1095 18.0554C16.4435 16.7029 18.797 13.4354 18.797 9.61595C18.796 4.58645 14.717 0.509949 9.68853 0.509949Z" fill="#BABABC"/>
<path d="M9.68849 13.1634C11.6477 13.1634 13.236 11.5752 13.236 9.61592C13.236 7.65669 11.6477 6.06842 9.68849 6.06842C7.72926 6.06842 6.14099 7.65669 6.14099 9.61592C6.14099 11.5752 7.72926 13.1634 9.68849 13.1634Z" fill="#BABABC"/>
<path d="M26.5316 23.045C26.2321 23.342 25.8791 23.493 25.4741 23.493C25.0631 23.493 24.7156 23.3415 24.4266 23.045C24.1371 22.745 23.9916 22.4065 23.9916 22.0275V6.25C23.9916 5.8525 24.1336 5.512 24.4141 5.2305C24.6946 4.951 25.0291 4.8105 25.4191 4.8105C25.8076 4.8105 26.1421 4.919 26.4226 5.1365C26.7041 5.3525 26.8716 5.616 26.9256 5.924C28.0661 5.1825 29.2976 4.81 30.6171 4.81C32.4276 4.81 33.9751 5.479 35.2621 6.819C36.5466 8.16 37.1896 9.7635 37.1896 11.6255C37.1896 13.4905 36.5461 15.0785 35.2621 16.391C33.9756 17.7055 32.4276 18.3605 30.6171 18.3605C29.2236 18.3605 28.0126 17.9905 26.9786 17.246V22.0265C26.9791 22.406 26.8296 22.745 26.5316 23.045ZM33.1711 8.883C32.4646 8.143 31.6046 7.7705 30.5916 7.7705C29.5766 7.7705 28.7211 8.145 28.0236 8.898C27.3276 9.6485 26.9786 10.586 26.9786 11.707C26.9786 12.831 27.3326 13.709 28.0381 14.3425C28.7266 15.1005 29.5726 15.482 30.5771 15.482C31.5821 15.482 32.4426 15.1 33.1576 14.3425C33.8721 13.58 34.2301 12.6815 34.2301 11.6385C34.2296 10.599 33.8771 9.6805 33.1711 8.883Z" fill="#BABABC"/>
<path d="M52.098 11.246C52.098 11.6445 51.9645 11.9655 51.7025 12.21C51.4405 12.454 51.092 12.576 50.658 12.576H42.023C42.1855 13.3555 42.493 13.952 42.9455 14.369C43.525 15.039 44.3715 15.4405 45.4855 15.577C46.6 15.7125 47.562 15.49 48.377 14.912C48.648 14.623 49.0095 14.4785 49.4635 14.4785C49.9155 14.4785 50.2325 14.5955 50.413 14.831C50.92 15.3905 50.92 15.9815 50.413 16.5955C49.111 17.789 47.512 18.3825 45.62 18.374C43.7275 18.365 42.144 17.701 40.8685 16.378C39.593 15.0565 38.946 13.464 38.927 11.5995C38.946 9.73499 39.5935 8.13699 40.8685 6.80649C42.1445 5.47699 43.6875 4.81049 45.498 4.81049C47.3085 4.81049 48.8335 5.40449 50.075 6.59049C51.314 7.77499 51.9885 9.28149 52.098 11.1105V11.246ZM45.5535 7.39049C44.5025 7.44299 43.6615 7.77049 43.028 8.36799C42.3935 8.96549 42.0125 9.59849 41.8875 10.269H49.571C49.41 9.63649 48.969 9.01949 48.254 8.42249C47.5385 7.82399 46.6395 7.48049 45.5535 7.39049Z" fill="#BABABC"/>
<path d="M55.3831 16.4325C54.1146 15.13 53.4811 13.541 53.4811 11.6665C53.4811 9.79249 54.1146 8.18249 55.3831 6.83449C56.6491 5.48449 58.1886 4.81049 59.9991 4.81049C61.3746 4.81049 62.5871 5.19149 63.6371 5.95199C63.7096 5.62699 63.8811 5.35249 64.1531 5.13649C64.4241 4.91849 64.7466 4.81049 65.1176 4.81049C65.4881 4.81049 65.8146 4.95099 66.0936 5.23049C66.3736 5.51199 66.5161 5.85249 66.5161 6.24999V16.7305C66.5161 18.5245 65.8771 20.0585 64.6016 21.334C63.3261 22.6105 61.7911 23.247 59.9991 23.247C58.9671 23.247 58.0176 23.0205 57.1476 22.5695C56.7851 22.4065 56.5406 22.131 56.4141 21.7415C56.2871 21.353 56.3151 20.978 56.4946 20.6135C56.6771 20.252 56.9531 20.007 57.3246 19.881C57.6951 19.754 58.0711 19.7725 58.4496 19.9355C58.9201 20.1885 59.5141 20.3155 60.2286 20.3155C60.9441 20.3155 61.6321 20.04 62.2926 19.4885C62.9536 18.936 63.3741 18.2425 63.5561 17.4095C62.5051 18.135 61.3196 18.4965 59.9986 18.4965C58.1881 18.496 56.6491 17.8075 55.3831 16.4325ZM56.4141 11.68C56.4141 12.749 56.7581 13.662 57.4466 14.4235C58.1341 15.1835 58.9891 15.563 60.0116 15.563C61.0366 15.563 61.8901 15.192 62.5776 14.4505C63.2656 13.7085 63.6106 12.7845 63.6106 11.6795C63.6106 10.5755 63.2621 9.63899 62.5641 8.87099C61.8671 8.09949 61.0201 7.71599 60.0256 7.71599C59.0291 7.71599 58.1781 8.10899 57.4731 8.89699C56.7681 9.68449 56.4141 10.6115 56.4141 11.68Z" fill="#BABABC"/>
<path d="M72.635 1.97047V2.54197C72.635 2.95797 72.494 3.31147 72.2145 3.59947C71.9335 3.88947 71.5905 4.03397 71.1815 4.03397C70.774 4.03397 70.4265 3.88947 70.1365 3.59947C69.848 3.31147 69.7035 2.95797 69.7035 2.54197V1.97047C69.7035 1.57397 69.848 1.22947 70.1365 0.93947C70.4265 0.65097 70.7735 0.50647 71.1815 0.50647C71.5905 0.50647 71.9335 0.64397 72.2145 0.92647C72.4935 1.20697 72.635 1.55547 72.635 1.97047Z" fill="#BABABC"/>
<path d="M70.1225 5.25895C70.4025 4.97945 70.752 4.83795 71.1675 4.83795C71.5855 4.83795 71.933 4.97945 72.2145 5.25895C72.494 5.54045 72.635 5.89645 72.635 6.33195V16.9215C72.635 17.3385 72.494 17.686 72.2145 17.9675C71.9335 18.2485 71.5905 18.3885 71.1815 18.3885C70.774 18.3885 70.4265 18.243 70.1365 17.953C69.848 17.665 69.7035 17.319 69.7035 16.922V6.33145C69.703 5.89645 69.8415 5.54045 70.1225 5.25895Z" fill="#BABABC"/>
<path d="M78.3145 23.045C78.016 23.342 77.663 23.493 77.257 23.493C76.8475 23.493 76.499 23.3415 76.211 23.045C75.9205 22.745 75.776 22.4065 75.776 22.0275V6.25C75.776 5.8525 75.9145 5.512 76.196 5.2305C76.478 4.951 76.8115 4.8105 77.2015 4.8105C77.59 4.8105 77.926 4.919 78.206 5.1365C78.4875 5.3525 78.655 5.616 78.7095 5.924C79.8495 5.1825 81.081 4.81 82.403 4.81C84.211 4.81 85.759 5.479 87.0465 6.819C88.33 8.16 88.974 9.7635 88.974 11.6255C88.974 13.4905 88.33 15.0785 87.0465 16.391C85.759 17.7055 84.211 18.3605 82.403 18.3605C81.008 18.3605 79.7965 17.9905 78.764 17.246V22.0265C78.763 22.406 78.6125 22.745 78.3145 23.045ZM84.955 8.883C84.249 8.143 83.3875 7.7705 82.3745 7.7705C81.36 7.7705 80.5055 8.145 79.808 8.898C79.1105 9.6485 78.763 10.586 78.763 11.707C78.763 12.831 79.116 13.709 79.821 14.3425C80.5095 15.1005 81.3555 15.482 82.3605 15.482C83.3655 15.482 84.225 15.1 84.94 14.3425C85.654 13.58 86.0125 12.6815 86.0125 11.6385C86.0125 10.599 85.6595 9.6805 84.955 8.883Z" fill="#BABABC"/>
<path d="M103.882 11.246C103.882 11.6445 103.748 11.9655 103.486 12.21C103.223 12.4545 102.874 12.576 102.442 12.576H93.8064C93.9679 13.3555 94.2769 13.952 94.7289 14.369C95.3089 15.039 96.1554 15.4405 97.2684 15.577C98.3829 15.7125 99.3459 15.49 100.16 14.912C100.43 14.623 100.794 14.4785 101.247 14.4785C101.699 14.4785 102.016 14.5955 102.197 14.831C102.704 15.3905 102.704 15.9815 102.197 16.5955C100.894 17.789 99.2944 18.3825 97.4039 18.374C95.5109 18.365 93.9269 17.701 92.6519 16.378C91.3749 15.0565 90.7289 13.464 90.7109 11.5995C90.7289 9.73499 91.3749 8.13699 92.6519 6.80649C93.9269 5.47699 95.4719 4.81049 97.2819 4.81049C99.0919 4.81049 100.617 5.40449 101.858 6.59049C103.096 7.77499 103.772 9.28149 103.882 11.1105V11.246ZM97.3374 7.39049C96.2854 7.44299 95.4439 7.77049 94.8094 8.36799C94.1769 8.96549 93.7969 9.59849 93.6709 10.269H101.354C101.193 9.63649 100.753 9.01949 100.037 8.42249C99.3234 7.82399 98.4239 7.48049 97.3374 7.39049Z" fill="#BABABC"/>
<path d="M107.166 16.4325C105.899 15.13 105.264 13.541 105.264 11.6665C105.264 9.79249 105.899 8.18249 107.166 6.83449C108.432 5.48449 109.971 4.81049 111.784 4.81049C113.158 4.81049 114.368 5.19149 115.42 5.95199C115.494 5.62699 115.665 5.35249 115.937 5.13649C116.206 4.91849 116.53 4.81049 116.9 4.81049C117.271 4.81049 117.598 4.95099 117.877 5.23049C118.158 5.51199 118.299 5.85249 118.299 6.24999V16.7305C118.299 18.5245 117.661 20.0585 116.384 21.334C115.108 22.6105 113.573 23.247 111.784 23.247C110.75 23.247 109.801 23.0205 108.931 22.5695C108.567 22.4065 108.325 22.131 108.198 21.7415C108.07 21.353 108.099 20.978 108.278 20.6135C108.46 20.252 108.736 20.007 109.107 19.881C109.478 19.754 109.854 19.7725 110.232 19.9355C110.705 20.1885 111.298 20.3155 112.013 20.3155C112.729 20.3155 113.416 20.04 114.077 19.4885C114.737 18.936 115.158 18.2425 115.339 17.4095C114.288 18.135 113.102 18.4965 111.783 18.4965C109.971 18.496 108.432 17.8075 107.166 16.4325ZM108.198 11.68C108.198 12.749 108.542 13.662 109.229 14.4235C109.919 15.1835 110.774 15.563 111.796 15.563C112.819 15.563 113.674 15.192 114.362 14.4505C115.05 13.7085 115.395 12.7845 115.395 11.6795C115.395 10.5755 115.045 9.63899 114.348 8.87099C113.65 8.09949 112.806 7.71599 111.81 7.71599C110.814 7.71599 109.964 8.10899 109.258 8.89699C108.552 9.68449 108.198 10.6115 108.198 11.68Z" fill="#BABABC"/>
<path d="M124.418 1.97047V2.54197C124.418 2.95797 124.278 3.31147 123.997 3.59947C123.717 3.88947 123.374 4.03397 122.966 4.03397C122.558 4.03397 122.209 3.88947 121.92 3.59947C121.631 3.31147 121.486 2.95797 121.486 2.54197V1.97047C121.486 1.57397 121.631 1.22947 121.92 0.93947C122.209 0.65097 122.557 0.50647 122.966 0.50647C123.374 0.50647 123.717 0.64397 123.997 0.92647C124.278 1.20697 124.418 1.55547 124.418 1.97047Z" fill="#BABABC"/>
<path d="M121.906 5.25895C122.186 4.97945 122.535 4.83795 122.951 4.83795C123.367 4.83795 123.717 4.97945 123.997 5.25895C124.278 5.54045 124.418 5.89645 124.418 6.33195V16.9215C124.418 17.3385 124.278 17.686 123.997 17.9675C123.717 18.2485 123.374 18.3885 122.966 18.3885C122.558 18.3885 122.209 18.243 121.92 17.953C121.631 17.665 121.486 17.319 121.486 16.922V6.33145C121.486 5.89645 121.624 5.54045 121.906 5.25895Z" fill="#BABABC"/>
</svg>
